<svg xmlns="http://www.w3.org/2000/svg" viewBox="0 0 1008 1008"><path fill="currentColor" d="M803 385l-81-81-200 200 200 200 81-81q17-18 39-8 22 8 22 33v252q0 15-10.5 25.5T828 936H576q-23 0-33-22t8-39l81-81-200-200-200 200 81 81q18 17 8 39t-33 22H36q-15 0-25.5-10.5T0 900V648q0-23 22-33t39 8l81 81 200-200-200-200-81 81q-9 11-25 11-8 0-14-3-22-8-22-33V108q0-15 10.5-25.5T36 72h252q23 0 33 22t-8 39l-81 81 200 200 200-200-81-81q-18-17-8-39t33-22h252q15 0 25.5 10.5T864 108v252q0 25-22 33-6 3-14 3-16 0-25-11z"/></svg>
