<svg xmlns="http://www.w3.org/2000/svg" viewBox="0 0 1008 1008"><path fill="currentColor" d="M722 304L522 504l200 200 81-81q16-18 39-8 22 8 22 33v252q0 15-10.5 25.5T828 936H576q-25 0-33-22-10-23 8-39l81-81-200-200-200 200 81 81q18 16 8 39-8 22-33 22H36q-15 0-25.5-10.5T0 900V648q0-25 22-33 23-10 39 8l81 81 200-200-200-200-81 81q-9 11-25 11-6 0-14-3-22-8-22-33V108q0-15 10.5-25.5T36 72h252q25 0 33 22 10 23-8 39l-81 81 200 200 200-200-81-81q-18-16-8-39 8-22 33-22h252q15 0 25.5 10.5T864 108v252q0 25-22 33-8 3-14 3-16 0-25-11z"/></svg>
