<svg xmlns="http://www.w3.org/2000/svg" viewBox="0 0 1008 1008"><path fill="currentColor" d="M1092 9l48 54q10 14-2 26L85 1001q-13 13-25-2l-48-54q-11-14 2-25l105-91q-11-17-11-37 180-152 180-468 0-86 65.5-159T527 76q-5-12-5-22 0-22 16-38t38-16 38 16 16 38q0 8-4 22 69 10 122.5 46.5T832 211L1067 7q13-13 25 2zm-48 783q0 29-21.5 50.5T972 864H720q0 59-42.5 101.5T576 1008t-101-42-43-101l84-73h426q-93-104-128-258l62-55q35 200 168 313zM283 687l493-428q-23-49-74-82t-126-33q-101 0-158.5 58T360 324q0 216-77 363zm302 267q0-9-9-9-33 0-57-24t-24-57q0-9-9-9t-9 9q0 41 29 70t70 29q9 0 9-9z"/></svg>
