<svg xmlns="http://www.w3.org/2000/svg" viewBox="0 0 1008 1008"><path fill="currentColor" d="M585 954q0-9-9-9-34 0-57.5-23.5T495 864q0-9-9-9t-9 9q0 41 29 70t70 29q9 0 9-9zM283 687l493-428q-23-49-74-82t-126-33q-101 0-158.5 58T360 324q0 214-77 363zm761 105q0 30-21 51t-51 21H720q0 60-42 102t-102 42q-59 0-101.5-42T432 864l84-72h425q-92-104-127-258l62-55q35 200 168 313zm48-783l48 54q10 14-2 26L85 1001q-15 11-25-2l-48-54q-10-14 2-26l105-90q-11-17-11-37 180-154 180-468 0-86 65.5-159T527 76q-5-12-5-22 0-22 16-38t38-16 38 16 16 38q0 10-5 22 70 10 123 46.5t84 88.5L1067 7q14-12 25 2z"/></svg>
