<svg xmlns="http://www.w3.org/2000/svg" viewBox="0 0 1008 1008"><path fill="currentColor" d="M72 936h162V774H72v162zm198 0h180V774H270v162zM72 738h162V558H72v180zm198 0h180V558H270v180zM72 522h162V360H72v162zm414 414h180V774H486v162zM270 522h180V360H270v162zm432 414h162V774H702v162zM486 738h180V558H486v180zM288 252V90q0-8-5-13t-13-5h-36q-8 0-13 5t-5 13v162q0 8 5 13t13 5h36q8 0 13-5t5-13zm414 486h162V558H702v180zM486 522h180V360H486v162zm216 0h162V360H702v162zm18-270V90q0-8-5-13t-13-5h-36q-8 0-13 5t-5 13v162q0 8 5 13t13 5h36q8 0 13-5t5-13zm216-36v720q0 30-21 51t-51 21H72q-30 0-51-21T0 936V216q0-30 21-51t51-21h72V90q0-38 26-64t64-26h36q38 0 64 26t26 64v54h216V90q0-38 26-64t64-26h36q38 0 64 26t26 64v54h72q30 0 51 21t21 51z"/></svg>
