<svg xmlns="http://www.w3.org/2000/svg" viewBox="0 0 1008 1008"><path fill="currentColor" d="M936 216v720q0 29-21.5 50.5T864 1008H72q-29 0-50.5-21.5T0 936V216q0-29 21.5-50.5T72 144h72V90q0-37 26.5-63.5T234 0h36q37 0 63.5 26.5T360 90v54h216V90q0-37 26.5-63.5T666 0h36q37 0 63.5 26.5T792 90v54h72q29 0 50.5 21.5T936 216zm-216 36V90q0-8-5-13t-13-5h-36q-8 0-13 5t-5 13v162q0 8 5 13t13 5h36q8 0 13-5t5-13zm-18 108v162h162V360H702zm-216 0v162h180V360H486zm216 198v180h162V558H702zM288 252V90q0-8-5-13t-13-5h-36q-8 0-13 5t-5 13v162q0 8 5 13t13 5h36q8 0 13-5t5-13zm198 306v180h180V558H486zm216 216v162h162V774H702zM270 360v162h180V360H270zm216 414v162h180V774H486zM72 360v162h162V360H72zm198 198v180h180V558H270zm-198 0v180h162V558H72zm198 216v162h180V774H270zm-198 0v162h162V774H72z"/></svg>
