<svg xmlns="http://www.w3.org/2000/svg" viewBox="0 0 1008 1008"><path fill="currentColor" d="M576 504q0-59-42.5-101.5T432 360t-101.5 42.5T288 504t42.5 101.5T432 648t101.5-42.5T576 504zm288-61v125q0 16-15 20l-105 16q-11 32-22 51 14 19 61 78 5 7 5 13 0 8-5 13-16 21-56 61t-53 40q-7 0-14-5l-78-61q-22 12-51 22-9 78-16 104-5 16-20 16H369q-17 0-20-17l-15-103q-27-9-51-21l-80 60q-5 5-13 5t-14-6q-68-59-93-95-4-5-4-12 0-9 4-14 40-50 59-77-14-26-23-55L16 585q-16-2-16-20V440q0-16 15-20l105-16q11-32 22-51-14-19-61-78-5-7-5-13 0-8 5-13 16-21 56-61t53-40q7 0 14 5l78 61q22-12 51-22 9-80 16-104 5-16 20-16h126q17 0 20 17l15 103q27 9 51 21l80-60q7-5 13-5 8 0 14 6 68 59 93 95 5 7 5 13t-5 13q-8 11-28.5 36.5T722 352q14 26 23 55l103 16q16 2 16 20z"/></svg>
