<svg xmlns="http://www.w3.org/2000/svg" viewBox="0 0 1008 1008"><path fill="currentColor" d="M864 443v125q0 16-16 20l-104 16q-9 25-22 51 12 17 60 77 6 6 6 14 0 6-5 13-17 22-56.5 61.5T674 860q-7 0-14-5l-78-61q-19 11-51 22-9 78-16 104-5 16-21 16H370q-18 0-21-17l-15-103q-27-9-51-21l-79 60q-8 5-14 5-8 0-14-6-72-65-93-95-4-5-4-13t4-12q8-11 28.5-37t30.5-41q-15-31-23-55L16 586q-16-4-16-21V440q0-6 4.5-12.5T15 420l105-16q6-20 22-51-18-25-60-78-6-6-6-13 0-6 5-13 13-20 54.5-60.5T190 148q8 0 14 6l78 60q19-11 51-22 9-78 16-104 5-16 21-16h124q18 0 21 17l15 103q27 9 51 21l80-60q5-5 13-5 9 0 15 6 71 66 92 95 4 5 4 13t-4 12q-8 11-28.5 37T722 352q15 31 23 55l103 15q16 4 16 21zm-288 61q0-59-42.5-101.5T432 360t-101.5 42.5T288 504t42.5 101.5T432 648t101.5-42.5T576 504z"/></svg>
