<svg xmlns="http://www.w3.org/2000/svg" viewBox="0 0 1008 1008"><path fill="currentColor" d="M720 756q0-15-10.5-25.5T684 720t-25.5 10.5T648 756t10.5 25.5T684 792t25.5-10.5T720 756zm144 0q0-15-10.5-25.5T828 720t-25.5 10.5T792 756t10.5 25.5T828 792t25.5-10.5T864 756zm72-126v180q0 22-16 38t-38 16H54q-22 0-38-16T0 810V630q0-22 16-38t38-16h261l77 76q30 32 76 32t76-32l77-76h261q22 0 38 16t16 38zM753 310q10 23-8 39L493 601q-11 11-25 11t-25-11L191 349q-18-16-8-39 8-22 33-22h144V36q0-15 10.5-25.5T396 0h144q15 0 25.5 10.5T576 36v252h144q25 0 33 22z"/></svg>
