<svg xmlns="http://www.w3.org/2000/svg" viewBox="0 0 1008 1008"><path fill="currentColor" d="M216 864h432V648H216v216zm504 0h72V360q0-8-5.5-22T775 319L617 161q-6-6-19.5-11.5T576 144v234q0 22-16 38t-38 16H198q-22 0-38-16t-16-38V144H72v720h72V630q0-22 16-38t38-16h468q22 0 38 16t16 38v234zM504 342V162q0-8-5-13t-13-5H378q-8 0-13 5t-5 13v180q0 8 5 13t13 5h108q8 0 13-5t5-13zm360 18v522q0 22-16 38t-38 16H54q-22 0-38-16T0 882V126q0-22 16-38t38-16h522q22 0 49 11t43 27l158 158q16 16 27 43t11 49z"/></svg>
