<svg xmlns="http://www.w3.org/2000/svg" viewBox="0 0 1008 1008"><path fill="currentColor" d="M432 72q179 0 305.5 126.5T864 504 737.5 809.5 432 936 126.5 809.5 0 504t126.5-305.5T432 72zm154 293q-2 1-6 5.5t-7 5.5q2-1 4.5-6.5t3.5-6.5q4.5-6 12-9 1 0 29-6 21-4 29 6-1-1 5-7t8-7 8.5-2.5 8.5-4.5l1-12q-6 1-9.5-4t-3.5-12q0 1-1.125 1.625Q666 308 666 309q0-3-2-4t-4-.5-5 1-4 .5q-6-1-8.5-4t-4-9.5-2.5-8.5q-1-3-5.5-6.5T625 272q-7-11-8-11t-3.5 3-5 5.5L606 272q-3-1-4-1t-3.5 2-3.5 3q-2 1-5 1.5t-4 .5q8.756-2.627-1.44-6.264-5.497-1.961-8.56-.736 11-4 0-15h2q0-2-4.5-4.5t-10.5-5-7-3.5q-3-3-18.5-5.5T519 237q-3 3-3 6t2 8 2 7q1 4-3 8t-4 6q0 4 8.5 9t5.5 12q-2 4-9 8.5t-9 7.5q-3 4-.5 10t5.5 9-7.392 9.916L505 339q-12 5-20-18-2-14-8-17-12-6-17 1-2-7-23-15-14-5-32-2 1-1 .5-5t-4-8-7.5-3q1-2 1.5-5t0-6 .5-6q1-5 7-13 4-4 8.5-9.5t1.5-6.5q20 2 28-6 3-2 6-9t6-10q5-4 8-3.5t8.5 3.5 8.5 3q8 0 8.5-7t-4.5-11q2.78.397 3.166-2.163.409-7.963-6.166-11.837-7.508-3.003-15.576 2.696-3.32 2.345 1.576 4.304l-5 6q-5 6-9.5 9.5T441 192q-1-1-1.5-3.5t-1.5-5-2-4.5-3-2q-5 0-9 8 2-4-5.5-7.5T404 172q11-7-4-15-4-2-12-3t-11 2q-2 4-2.5 6.5t2.5 4.5 5.5 3 6.5 2 5 2l3 2.5q3 2.5 3 3t-1 2.5q-1 1-7.5 3.5T384 189q-1 2 .5 8t-1.5 8q-3-3-5-10t-4-9q-1.24 4.344-20 3-2 0-9 1t-11.5.5-7.5-4.5l.378-12.43L328 173q-2-2-6-5.5t-5-4.5q-31 12-53 23 3 1 7 0 1-1 5.5-3.5t7.5-3.5q16-10 23-4l1.222-1q1.778-1 1.778-2 10 13 11 14-6-2-17 0-10 3-12 6 4 6 3 11-1-1-9-7.5t-14-7.5h-13q-81 45-132 125 3 3 7 5 2 1 3 5.5t1.5 6 6.5-1.5q5 3 1 10 1-1 12.5 6.5T171 353q10 8 12 12 1 5-6 10l-8.576-7.136L167 368q-1 2-1 6t2 7.5 5 3.5q-4 0-5 9t-1 20.5-1 13.5h1q-2 7 3 19.5t12 10.5q-5 1 3.5 14.5T198 488q2 2 7 4.5t8.5 5 5.5 5.5q3 3 6 13t7 14q-1 3 5.5 11t5.5 13q-1 0-2 1 1 4 8 8t9 7q1 1 1.5 4t.5 5 1.5 3.5 3.5.5q2-11-13-35-1-2-4.5-8t-5.5-8q-1-3-2.5-8.5T237 515q1 0 4.5 1.5t6 3 2.5 2.5q-1 3 2 9t6.5 10.5 9 10.5 6.5 7q12.667 19 9 19 11 0 20 17 3 5 4.5 15t2.5 13q3 8 29 21 1 1 9 6t13 7q6 3 25-1 9-1 16.5 8.5T414 676q20 11 31 6-1 1 0 3.5t3 6l4 7 4 6.5 2 3q3 4 10 9t10 8q2-1 4-5-1 4 4 11t10 6q8-1 8-18-17 8-27-10-3-5-5-10.5t2-8.5q3 0 4.5-1t1.5-2.5-.5-3.5-2-4.5-1.5-4.5-13-20q-3 5-9 4.5t-9-4.5q0 1-.5 3t-.5 3q-4.5 1.5-9 0 1-3 2-11t2-12q0-2 5.5-11t4-13-12.5-4q-10 0-15 11-1 2-2 6t-2.5 6.5-4.5 3.5q-4 2-13.5 1.5T385 635q-18-11-18-38 0-4 2.5-21.5T367 555q1-1 4.5-5.5t5.5-6.5q2-1 4-.5t3.5-.5 1.5-4q-3-3-4-3 4 2 16-.5t15 .5q9 5 13-1 0-1-1-3.5t-1.5-4.5.5-5q3 14 17 5 2 2 8.5 3t9.5 2q1.613 1.076 3.97 3.508 5.96 2.947 10.03-1.508 6 9 7 14 8 23 11 25 8 5 9-4.5t-1-15.5l-1-19q-12-4-11-11.5t10-15.5l4-2q4-2 9-4t7-4q12-12 8-20 3 0 6-5-6-6-9-6 4-2 1-9 3-2 4.5-6t4.5-6q3 4 7 3.5t5.5-4-.5-7.5q2-3 11-5t11-6q3 1 4-1t1-6.5 2-6.5q1-2 3.5-3.5t6.5-2.5 6-2q-.281 0 2.146-1.561Q597.27 395.654 598 394q11.767 2.353 18.237-6.281Q618.413 381.665 612 377q1-2-.5-4t-4-3-5.5-2q1 0 6 .5t6-1.5q8-5-3-9-11-3-25 7zm-92 493q116-20 198-106-2-2-7-2.5t-7-1.5q-12-5-13-5 0-5-2.5-8.5T653 727t-8-5q-15-11-22-9-6.472 1.392-10 6-13-10-21-12-3-1-8.5-4.5T576 699t-8 4q-2 3-2.5 9t-1.5 7q-5-3-1-10t2-10q-2-4-6-3t-6.5 2.5-6.5 4.5-5 4-5 3-5 4q-2 2-4 7t-2 6q-1-2-6.5-3.5T513 721q1 5 2 19t3 22q4 17-7 27-15 15-16 22-2 12 7 15 0 4-4.5 11t-3.5 12v9z"/></svg>
