<svg xmlns="http://www.w3.org/2000/svg" viewBox="0 0 1008 1008"><path fill="currentColor" d="M494 858q116-20 198-106-2-2-7-2.5t-7-1.5q-11-5-14-5 0-5-2-8.5t-9.5-8L645 722q-15-11-22-9-6.472 1.392-10 6-13-10-21-12-3-1-8.5-4.5T576 699t-8 4q-2 3-2.5 8.5T564 719q-5-3-1-10t2-10q-2-4-6-3t-6.5 2.5-6.5 4.5-5 4-5 3-5 4q-2 2-4 7t-2 6q-1-2-6.5-3.5T513 721q1 5 2 19t3 22q4 16-7 27-15 15-16 22-2 12 7 15 0 4-4.5 11t-4.5 12l.5 4q.5 4 .5 5zm92-493q-2 1-6 5.5t-7 5.5q2-1 4.5-6.5t3.5-6.5q4.5-6 12-9 1 0 29-6 21-4 29 6-1-1 5.5-7.5t7.5-6.5q2-1 8.5-2.5t8.5-4.5l1-12q-6 1-9.5-4t-3.5-12q-1 2-4 4 .67-5.355-9.3-3.367-3.432.684-4.7.367-6-1-8.5-4t-4-9.5-2.5-8.5-5-6-5-6q-1-1-3.5-5.5T617 261q-1 0-3.5 3t-5 5.5L606 272q-3-2-11 4-2 1-5 1.5t-4 .5q8.756-2.627-1.44-6.264-5.497-1.961-8.56-.736 12-5-1-15h3q0-2-4.5-4.5t-10.5-5-7-3.5q-4-3-19-5.5t-18-.5q-3 3-3 6t2 8 2 7q1 4-2.5 8t-3.5 6q0 4 8 9t5 12q-2 5-9 9.5t-9 6.5q-3 5-1 11t6 8q2 2 0 4t-5.5 4-3.5 3q-12 5-20-18-2-14-9-17-13-4-16 0-3-9-23-14-13-5-33-3 4.345 0-.521-9.444-3.834-7.438-9.479-5.556 2-3 2-9t1-8q1-7 6-13 0-1 3.5-5t6-7.5.5-3.5q20 2 28-6 3-2 6-9t6-10q5-4 8-3.5t8.5 3.5 8.5 3q8 0 8.5-7t-4.5-11q2.78.397 3.166-2.163.409-7.963-6.166-11.837-7.508-3.003-15.576 2.696-3.32 2.345 1.576 4.304-1 0-5.5 6t-9 9.5-8.5-2.5q-1-1-3.5-8t-5.5-7q-4 0-9 8 2-4-5.5-7.5T404 172q12-7-4-15-4-2-12-3t-11 2q-4 4-2 7.5t5 5 8 3 6 2.5q9 5 5 8-1 1-5 2.5t-7 2.5-3 2q-1 2 .5 8t-1.5 8q-3-3-5-10t-4-9q4.025 4.83-14.735 2.702L354 188q-2 0-9 1.5t-11.5 1-7.5-4.5l.378-12.84L328 173q-3-2-6-5.5t-5-4.5q-24 7-53 23 3 1 7 0 1-1 5.5-3.5t7.5-3.5q16-10 23-4l3-3q10 13 11 14-5-2-17 0-10 3-12 6 5 7 3 10-3-2-7-5.5t-8-6-8-2.5h-13q-80 44-132 125 1 2 7 5 2 0 3.5 7t7.5 2q4 4 1 11l6 3.5q6 3.5 12 7.5t7 4q1 1 4 3.5t5 4.5 3 4q2 6-6 10l-8.576-7.136L167 368q-1 2-1 6t2 7.5 5 3.5q-4 0-5 9t-1 20-1 13l1 1q-2 7 3 19.5t12 10.5q-5 1 3.5 14.5T198 488q2 2 7 4.5t8.5 5 5.5 5.5q1 2 4.5 12.5T232 529q-1 4 5.5 12t6.5 12q-2 1-3 2 1 3 8 7t9 8q1 1 1.5 4t.5 5 1.5 3.5 3.5.5q2-11-13-35-2-4-5.5-9.5T242 532q-1-3-2.5-8.5T237 515l13 6q-1 4 1.5 10t6.5 10.5 10 11 7 7.5q3 3 7 10.5t0 7.5q12 0 21 17 3 5 4.5 14.5T311 623q2 8 28 22 19 11 22 12 4 1 7.5 1.5t5.5 0 5.5-1.5 6.5-1q8-1 16 8.5t12 11.5q20 11 31 6-2 1 4.5 12.5T458 708q2 4 9.5 9t10.5 8q4-2 4-5-1 4 4 11t10 6q8-1 8-18-16 9-28-10 0-1-1.5-3.5t-2-4.5-1.5-5 0-4.5 3-1.5q3 0 4.5-1t1.5-2.5-.5-3.5-2-4.5-1.5-4.5q-1-5-6-11t-6-9q-3 5-9.5 4.5T445 654l-.5 2.5q-.5 2.5-.5 3.5h-9q1-4 2-11.5t2-11.5q0-2 5-11t4-13.5-12-3.5q-10 0-15 11-4 14-9 16-4 2-13.5 1t-13.5-3q-18-10-18-37 0-4 2.5-21.5T367 555q1-1 4.5-5.5t5.5-6.5q2-1 4-.5t3.5-.5 1.5-4l-4-3q4 2 16-.5t15 .5q9 5 13-1 0-1-1-3.5t-1.5-4.5.5-5q3 15 16 5 2 1 9 2.5t10 3.5q1 1 4 3.5t5 2 6-4.5q5 9 6 14 8 23 11 24 8 5 9-4t-1-15l-1-19q-12-4-11-11.5t10-15.5l4-2q4-2 8.5-4t7.5-4q12-12 8-20 4 0 7-5-1 0-3-1.5t-4.5-3L522 465q4-2 1-9 3-2 4.5-6t4.5-6q3 4 7 3.5t5.5-4-.5-7.5q3-3 11.5-5t10.5-6q3 1 4-1t1-6.5 2-6.5q2-4 8-5.5t7-2.5 2-1.5 4.5-2.5 4-3-.5-2q11.945 1.195 18.237-7.008 4.21-5.487-4.237-9.992 2-4-8.351-8.359-.65-.64-1.65-.64 1 0 6 .5t6-1.5q8-5-4-9-10-2-24 7zM432 72q179 0 305.5 126.5T864 504 737.5 809.5 432 936 126.5 809.5 0 504t126.5-305.5T432 72z"/></svg>
