<svg xmlns="http://www.w3.org/2000/svg" viewBox="0 0 1008 1008"><path fill="currentColor" d="M864 504q0 178-127 305T432 936q-97 0-183.5-41T100 780q-11-13 1-24l77-77q6-6 14-6 9 2 13 7 41 53 100.5 82.5T432 792q119 0 203.5-84.5T720 504t-84.5-203.5T432 216q-113 0-196 77l77 78q18 16 8 39-8 22-33 22H36q-15 0-25.5-10.5T0 396V144q0-25 22-33 23-10 39 8l73 72Q261 72 432 72q178 0 305 127t127 305zM504 342v252q0 8-5 13t-13 5H306q-8 0-13-5t-5-13v-36q0-8 5-13t13-5h126V342q0-8 5-13t13-5h36q8 0 13 5t5 13z"/></svg>
