<svg xmlns="http://www.w3.org/2000/svg" viewBox="0 0 1008 1008"><path fill="currentColor" d="M468 288q0-44-32-76t-76-32-76 32-32 76q0 23 11 47-24-11-47-11-44 0-76 32t-32 76 32 76 76 32 76-32 32-76q0-23-11-47 24 11 47 11 44 0 76-32t32-76zm479 396q0 10-27.5 37.5T882 749q-5 0-16-9t-20.5-18.5T824 699t-14-15l-54 54 124 124q16 16 16 38 0 23-22.5 45.5T828 968q-22 0-38-16L412 574q-99 74-205 74-91 0-149-58T0 441q0-68 32-135.5T115 187t118.5-83T369 72q91 0 149 58t58 149q0 106-74 205l200 200 54-54q-2-2-15-14t-22.5-21.5T700 574t-9-16q0-10 27.5-37.5T756 493q7 0 13 6 4 4 26.5 25.5t46 44.5 48.5 48.5 41 44 16 22.5z"/></svg>
