<svg xmlns="http://www.w3.org/2000/svg" viewBox="0 0 1008 1008"><path fill="currentColor" d="M947 684q0 10-27.5 37.5T882 749q-5 0-16-9t-20.5-18.5T824 699t-14-15l-54 54 124 124q16 16 16 38 0 24-22 46t-46 22q-22 0-38-16L412 574q-99 74-205 74-92 0-149.5-57.5T0 441q0-90 53.5-176T193 125.5 369 72q92 0 149.5 57.5T576 279q0 106-74 205l200 200 54-54q-2-2-15-14t-22.5-21.5T700 574t-9-16q0-10 27.5-37.5T756 493q7 0 13 6 4 4 26.5 25.5t46 44.5 48.5 48.5 41 44 16 22.5zM468 288q0-45-31.5-76.5T360 180t-76.5 31.5T252 288q0 23 11 47-24-11-47-11-45 0-76.5 31.5T108 432t31.5 76.5T216 540t76.5-31.5T324 432q0-23-11-47 24 11 47 11 45 0 76.5-31.5T468 288z"/></svg>
