<svg xmlns="http://www.w3.org/2000/svg" viewBox="0 0 1008 1008"><path fill="currentColor" d="M927 684q0 66-48 114l-82 82q-47 47-115 47t-114-48L452 763q-47-47-47-114 0-69 49-118l-49-49q-49 49-117 49-66 0-115-47L56 367Q9 320 9 252q0-66 48-114l82-82Q186 9 254 9t114 48l116 116q47 47 47 114 0 69-49 118l49 49q49-49 117-49 66 0 115 47l117 117q47 47 47 115zM424 287q0-22-16-38L292 133q-16-16-38-16-24 0-39 15l-82 82q-16 16-16 38t16 38l117 117q15 15 38 15 24 0 40-17l-13-13-14.5-15.5-8-14.5-4.5-20q0-22 16-38t38-16q10 0 20 4.5t14.5 8T392 315l13 13q19-17 19-41zm395 397q0-22-16-38L686 529q-16-16-38-16-24 0-40 18l13 13 14.5 15.5 8 14.5 4.5 20q0 22-16 38t-38 16q-10 0-20-4.5t-14.5-8T544 621l-13-13q-19 17-19 41 0 22 16 38l116 116q15 15 38 15 25 0 39-14l82-82q16-16 16-38z"/></svg>
