<svg xmlns="http://www.w3.org/2000/svg" viewBox="0 0 1008 1008"><path fill="currentColor" d="M819 684q0-23-16-38L686 529q-15-16-38-16t-41 18q3 3 11.5 11t11.5 11.5 8.5 10.5 7.5 14.5 2 15.5q0 22-16 38t-38 16q-8 0-15.5-2t-14.5-7.5-10.5-8.5-11.5-11.5-11-11.5q-18 18-18 41 0 24 15 39l116 116q16 16 38 16 23 0 38-15l83-82q16-16 16-38zM423 288q0-24-15-39L292 133q-16-16-38-16-23 0-38 15l-83 82q-16 16-16 38t16 38l117 117q16 16 38 16 23 0 41-18-3-3-11.5-11T306 382.5t-8.5-10.5-7.5-14.5-2-15.5q0-22 16-38t38-16q8 0 15.5 2t14.5 7.5 10.5 8.5 11.5 11.5 11 11.5q18-18 18-41zm504 396q0 68-48 114l-83 82q-47 47-114 47t-115-48L452 763q-47-49-47-115 0-69 50-117l-50-50q-48 50-117 50-66 0-115-47L56 367Q9 318 9 252q0-68 48-114l83-82Q187 9 254 9t115 48l115 116q47 49 47 115 0 69-50 117l50 50q48-50 117-50 66 0 115 47l117 117q47 49 47 115z"/></svg>
