<svg xmlns="http://www.w3.org/2000/svg" viewBox="0 0 1008 1008"><path fill="currentColor" d="M144 738v108q0 8-5 13t-13 5H18q-8 0-13-5t-5-13V738q0-8 5-13t13-5h108q8 0 13 5t5 13zm0-216v108q0 8-5 13t-13 5H18q-8 0-13-5t-5-13V522q0-8 5-13t13-5h108q8 0 13 5t5 13zm0-216v108q0 8-5 13t-13 5H18q-8 0-13-5t-5-13V306q0-8 5-13t13-5h108q8 0 13 5t5 13zm864 432v108q0 8-5 13t-13 5H234q-8 0-13-5t-5-13V738q0-8 5-13t13-5h756q8 0 13 5t5 13zM144 90v108q0 8-5 13t-13 5H18q-8 0-13-5t-5-13V90q0-8 5-13t13-5h108q8 0 13 5t5 13zm864 432v108q0 8-5 13t-13 5H234q-8 0-13-5t-5-13V522q0-8 5-13t13-5h756q8 0 13 5t5 13zm0-216v108q0 8-5 13t-13 5H234q-8 0-13-5t-5-13V306q0-8 5-13t13-5h756q8 0 13 5t5 13zm0-216v108q0 8-5 13t-13 5H234q-8 0-13-5t-5-13V90q0-8 5-13t13-5h756q8 0 13 5t5 13z"/></svg>
