<svg xmlns="http://www.w3.org/2000/svg" viewBox="0 0 1008 1008"><path fill="currentColor" d="M216 792q0 45-31.5 76.5T108 900t-76.5-31.5T0 792t31.5-76.5T108 684t76.5 31.5T216 792zm0-288q0 45-31.5 76.5T108 612t-76.5-31.5T0 504t31.5-76.5T108 396t76.5 31.5T216 504zm792 234v108q0 8-5 13t-13 5H306q-8 0-13-5t-5-13V738q0-8 5-13t13-5h684q8 0 13 5t5 13zM216 216q0 45-31.5 76.5T108 324t-76.5-31.5T0 216t31.5-76.5T108 108t76.5 31.5T216 216zm792 234v108q0 8-5 13t-13 5H306q-8 0-13-5t-5-13V450q0-8 5-13t13-5h684q8 0 13 5t5 13zm0-288v108q0 8-5 13t-13 5H306q-8 0-13-5t-5-13V162q0-8 5-13t13-5h684q8 0 13 5t5 13z"/></svg>
