<svg xmlns="http://www.w3.org/2000/svg" viewBox="0 0 1008 1008"><path fill="currentColor" d="M1008 162v108q0 8-5 13t-13 5H306q-8 0-13-5t-5-13V162q0-8 5-13t13-5h684q8 0 13 5t5 13zm0 288v108q0 8-5 13t-13 5H306q-8 0-13-5t-5-13V450q0-8 5-13t13-5h684q8 0 13 5t5 13zM155 232h61v56H28v-56h60V89h-1q-6 12-28 30L19 76 96 5h59v227zm853 506v108q0 8-5 13t-13 5H306q-8 0-13-5t-5-13V738q0-8 5-13t13-5h684q8 0 13 5t5 13zM156 559h59v89H12q-4-20-4-30 0-35 20-63t44-42 44-30.5 20-31.5q0-30-31-30-26 0-45 33l-48-33q13-29 40-45t59-16q42 0 70 23.5t28 63.5q0 28-19 51.5t-42 36-42.5 28T85 592h71v-33zm58 352q0 45-30.5 71t-76.5 26q-59 0-96-37l32-50q28 26 59 26 17 0 29-8.5t12-23.5q0-37-59-32l-15-31q50-65 63-77-9 0-27 .5t-27 .5v29H18v-85h187v49l-53 65q29 7 45.5 27.5T214 911z"/></svg>
