<svg xmlns="http://www.w3.org/2000/svg" viewBox="0 0 1008 1008"><path fill="currentColor" d="M214 911q0 45-30.5 71t-76.5 26q-59 0-96-37l32-50q28 26 59 26 17 0 29-8.5t12-23.5q0-37-59-32l-15-31q50-65 63-77v-1q-9 0-27 1t-27 1v29H18v-85h187v49l-53 65q29 7 45.5 27.5T214 911zm2-352v89H12q-3-15-3-31 0-35 20-62.5T72.5 513t43.5-30.5 20-31.5q0-30-31-30-26 0-45 33l-48-33q30-61 100-61 41 0 69 23.5t28 63.5q0 28-19 51.5t-42 36-42.5 28T85 592h71v-33h60zm792 179v108q0 8-5 13t-13 5H306q-8 0-13-5t-5-13V738q0-8 5-13t13-5h684q8 0 13 5t5 13zM216 233v55H27v-55h61V89h-1q-4 9-28 30L19 76 96 5h59v228h61zm792 217v108q0 8-5 13t-13 5H306q-8 0-13-5t-5-13V450q0-8 5-13t13-5h684q8 0 13 5t5 13zm0-288v108q0 8-5 13t-13 5H306q-8 0-13-5t-5-13V162q0-8 5-13t13-5h684q8 0 13 5t5 13z"/></svg>
