<svg xmlns="http://www.w3.org/2000/svg" viewBox="0 0 1008 1008"><path fill="currentColor" d="M988 254l-52 52-162-162 52-52q16-16 38-16t38 16l86 86q16 16 16 38t-16 38zM360 558l378-378 162 162-378 378H360V558zm432 37v107q0 67-47.5 114.5T630 864H162q-67 0-114.5-47.5T0 702V234q0-67 47.5-114.5T162 72h468q33 0 66 14 8 3 10 13 2 9-5 16l-28 28q-8 8-18 4-12-3-25-3H162q-37 0-63.5 26.5T72 234v468q0 37 26.5 63.5T162 792h468q37 0 63.5-26.5T720 702v-71q0-7 5-12l36-36q9-9 20-4t11 16zm-45-334q-9-9-19 1L532 458q-10 10-1 19t19-1l196-196q10-10 1-19zM468 666h32l65-65-86-86-65 65v32h54v54z"/></svg>
