<svg xmlns="http://www.w3.org/2000/svg" viewBox="0 0 1008 1008"><path fill="currentColor" d="M500 666l65-65-86-86-65 65v32h54v54h32zm247-405q-9-9-19 1L532 458q-10 10-1 19t19-1l196-196q10-10 1-19zm45 334v107q0 67-47.5 114.5T630 864H162q-67 0-114.5-47.5T0 702V234q0-67 47.5-114.5T162 72h468q33 0 66 14 8 3 10 13 2 9-5 16l-28 28q-7 7-18 5-11-4-25-4H162q-38 0-64 26t-26 64v468q0 38 26 64t64 26h468q38 0 64-26t26-64v-71q0-7 5-12l36-36q8-9 20-4 11 3 11 16zm-54-415l162 162-378 378H360V558zm250 74l-52 52-162-162 52-52q16-16 38-16t38 16l86 86q16 16 16 38t-16 38z"/></svg>
