<svg xmlns="http://www.w3.org/2000/svg" viewBox="0 0 1008 1008"><path fill="currentColor" d="M396 706v135q0 10-6.5 16.5T374 864H239q-10 0-16.5-6.5T216 841V706q0-9 6.5-15.5T239 684h135q9 0 15.5 6.5T396 706zm178-337q0 38-11 67.5T529.5 488t-38 32.5T448 547q-23 13-38.5 36.5T394 621q0 9-6.5 18t-15.5 9H237q-9 0-15-10.5t-6-21.5v-25q0-47 36.5-88t80.5-61q33-15 47.5-31.5T395 368q0-24-26.5-42T308 308q-38 0-61 17-20 13-60 64-7.5 9-18 9-9 0-14-4l-92-71q-16-12-6-29 91-150 261-150 95 0 175.5 66T574 369z"/></svg>
