<svg xmlns="http://www.w3.org/2000/svg" viewBox="0 0 1008 1008"><path fill="currentColor" d="M864 504q0 179-126.5 305.5T432 936 126.5 809.5 0 504t126.5-305.5T432 72t305.5 126.5T864 504zM648 396q0-74-64.5-127T443 216q-136 0-208 120-9 14 4 23l74 57q4 3 11 3 10 0 14-7 29-37 48-51 20-14 49-14 27 0 48 14.5t21 33.5q0 38-50 59-35 17-64.5 50T360 574v20q0 8 5 13t13 5h108q8 0 13-5t5-13q0-11 12-28.5t31-27.5q23-13 34.5-21t30.5-25.5 27.5-41.5 8.5-54zM504 774V666q0-8-5-13t-13-5H378q-8 0-13 5t-5 13v108q0 8 5 13t13 5h108q8 0 13-5t5-13z"/></svg>
