<svg xmlns="http://www.w3.org/2000/svg" viewBox="0 0 1008 1008"><path fill="currentColor" d="M504 774V666q0-8-5-13t-13-5H378q-8 0-13 5t-5 13v108q0 8 5 13t13 5h108q8 0 13-5t5-13zm144-378q0-74-64.5-127T443 216q-136 0-209 120-7 14 5 23l74 57q4 3 11 3 10 0 14-7 35-43 48-51 20-14 49-14 27 0 48 14.5t21 33.5q0 21-11.5 34T455 454q-36 17-65.5 49.5T360 574v20q0 8 5 13t13 5h108q8 0 13-5t5-13q0-11 12-28.5t31-27.5q22-12 35-21t31-26 26.5-41 8.5-54zm216 108q0 179-126.5 305.5T432 936 126.5 809.5 0 504t126.5-305.5T432 72t305.5 126.5T864 504z"/></svg>
