<svg xmlns="http://www.w3.org/2000/svg" viewBox="0 0 1008 1008"><path fill="currentColor" d="M936 252v288q0 14-9.5 24.5T904 576l-587 69q0 3 3.5 17t3.5 22q0 7-13 36h517q15 0 25.5 10.5T864 756t-10.5 25.5T828 792H252q-15 0-25.5-10.5T216 756q0-13 34-77l-99-463H36q-15 0-25.5-10.5T0 180t10.5-25.5T36 144h144q11 0 18.5 4t12 14.5T217 178t4.5 21.5L224 216h676q15 0 25.5 10.5T936 252zm-72 612q0 29-21.5 50.5T792 936t-50.5-21.5T720 864t21.5-50.5T792 792t50.5 21.5T864 864zm-504 0q0 29-21.5 50.5T288 936t-50.5-21.5T216 864t21.5-50.5T288 792t50.5 21.5T360 864z"/></svg>
