<svg xmlns="http://www.w3.org/2000/svg" viewBox="0 0 1008 1008"><path fill="currentColor" d="M360 864q0 30-21 51t-51 21-51-21-21-51 21-51 51-21 51 21 21 51zm504 0q0 30-21 51t-51 21-51-21-21-51 21-51 51-21 51 21 21 51zm72-612v288q0 14-9.5 24.5T904 576l-588 69q8 35 8 39 0 10-14 36h518q15 0 25.5 10.5T864 756t-10.5 25.5T828 792H252q-15 0-25.5-10.5T216 756q0-8 5.5-21.5t17-34.5l11.5-21-99-463H36q-15 0-25.5-10.5T0 180t10.5-25.5T36 144h144q11 0 18.5 4t12 14 6.5 16.5 4.5 20.5 3.5 17h675q15 0 25.5 10.5T936 252z"/></svg>
