<svg xmlns="http://www.w3.org/2000/svg" viewBox="0 0 1008 1008"><path fill="currentColor" d="M349 630q-64 36-151 36h-72v-36H90q-8 0-13-13t-5-32q0-18 4-27-76-4-76-18t76-18q-4-9-4-27 0-19 5-32t13-13h36v-36h72q87 0 151 36h626q19 3 55 9.5t50 8.5q50 8 84.5 22.5t47 27T1224 540t-12.5 22.5-47 27T1080 612q-14 2-50 8.5t-55 9.5H349zm629-142q30 22 30 52t-30 52l46 17q38-28 38-69t-38-69zM351 639h572q-122 21-257 45-32 0-63.5 13.5t-47 27L540 738 378 900q-36 36-90 36h-54l-52-261h16q89 0 153-36zM198 405h-16l52-261h54q54 0 90 36l162 162q6 6 17 15t44 24 65 15l257 45H351q-64-36-153-36z"/></svg>
