<svg xmlns="http://www.w3.org/2000/svg" viewBox="0 0 1008 1008"><path fill="currentColor" d="M198 405h-16l52-261h54q54 0 90 36l162 162q6 6 17 15t44 24 65 15l257 45H352q-66-36-154-36zm154 234h571q-123 21-257 45-32 0-63.5 13.5t-47 27L540 738 378 900q-36 36-90 36h-54l-52-261h16q88 0 154-36zm672-168l-46 17q30 22 30 52t-30 52l46 17q38-28 38-69t-38-69zm-49 159H349q-61 36-151 36h-72v-36H90q-8 0-13-13t-5-32q0-12 4-28-76-2-76-17t76-17q-4-16-4-28 0-19 5-32t13-13h36v-36h72q90 0 151 36h626q15 3 38 7t39.5 6.5 27.5 4.5q50 8 84.5 22.5t47 27T1224 540t-12.5 22.5-47 27T1080 612q-11 2-27.5 4.5T1013 623t-38 7z"/></svg>
