<svg xmlns="http://www.w3.org/2000/svg" viewBox="0 0 1008 1008"><path fill="currentColor" d="M296 784q0 30-21 51t-51 21-51-21-21-51 21-51 51-21 51 21 21 51zm280 116q0 30-21 51t-51 21-51-21-21-51 21-51 51-21 51 21 21 51zM180 504q0 30-21 51t-51 21-51-21-21-51 21-51 51-21 51 21 21 51zm676 280q0 30-21 51t-51 21-51-21-21-51 21-51 51-21 51 21 21 51zM314 224q0 38-26 64t-64 26-64-26-26-64 26-64 64-26 64 26 26 64zm658 280q0 30-21 51t-51 21-51-21-21-51 21-51 51-21 51 21 21 51zM612 108q0 45-31.5 76.5T504 216t-76.5-31.5T396 108t31.5-76.5T504 0t76.5 31.5T612 108zm298 116q0 52-37 89t-89 37-89-37-37-89 37-89 89-37 89 37 37 89z"/></svg>
