<svg xmlns="http://www.w3.org/2000/svg" viewBox="0 0 1008 1008"><path fill="currentColor" d="M1008 108v144q0 15-10.5 25.5T972 288H36q-15 0-25.5-10.5T0 252V108q0-15 10.5-25.5T36 72h936q15 0 25.5 10.5T1008 108zm0 288v144q0 15-10.5 25.5T972 576H36q-15 0-25.5-10.5T0 540V396q0-15 10.5-25.5T36 360h936q15 0 25.5 10.5T1008 396zm0 288v144q0 15-10.5 25.5T972 864H36q-15 0-25.5-10.5T0 828V684q0-15 10.5-25.5T36 648h936q15 0 25.5 10.5T1008 684zM720 144v72h216v-72H720zM360 432v72h576v-72H360zm216 288v72h360v-72H576z"/></svg>
