<svg xmlns="http://www.w3.org/2000/svg" viewBox="0 0 1008 1008"><path fill="currentColor" d="M288 702v108q0 22-16 38t-38 16H54q-22 0-38-16T0 810V702q0-22 16-38t38-16h180q22 0 38 16t16 38zm0-288v108q0 22-16 38t-38 16H54q-22 0-38-16T0 522V414q0-22 16-38t38-16h180q22 0 38 16t16 38zm720 288v108q0 22-16 38t-38 16H414q-22 0-38-16t-16-38V702q0-22 16-38t38-16h540q22 0 38 16t16 38zM288 126v108q0 22-16 38t-38 16H54q-22 0-38-16T0 234V126q0-22 16-38t38-16h180q22 0 38 16t16 38zm720 288v108q0 22-16 38t-38 16H414q-22 0-38-16t-16-38V414q0-22 16-38t38-16h540q22 0 38 16t16 38zm0-288v108q0 22-16 38t-38 16H414q-22 0-38-16t-16-38V126q0-22 16-38t38-16h540q22 0 38 16t16 38z"/></svg>
