<svg xmlns="http://www.w3.org/2000/svg" viewBox="0 0 1008 1008"><path fill="currentColor" d="M900 468q0 48-31 84 6 17 9 43 0 43-25 77 10 28 0 65-8 32-30 53 5 65-28 102-35 42-110 44h-73q-80 0-217-47-73-24-89-25-15-1-25.5-11T270 828V467q0-13 10-23.5t24-12.5q24-1 100-101 37-48 57-67 20-20 35-89 12-67 37-91 9-11 25-11 36 0 61.5 11.5t37.5 26 18.5 38 7.5 36 1 32.5q0 48-31 108-13 23-17 36h156q44 0 76 32t32 76zm-666 0v360q0 15-10.5 25.5T198 864H36q-15 0-25.5-10.5T0 828V468q0-15 10.5-25.5T36 432h162q15 0 25.5 10.5T234 468zm-90 288q0-15-10.5-25.5T108 720t-25.5 10.5T72 756t10.5 25.5T108 792t25.5-10.5T144 756z"/></svg>
