<svg xmlns="http://www.w3.org/2000/svg" viewBox="0 0 1008 1008"><path fill="currentColor" d="M144 756q0-15-10.5-25.5T108 720t-25.5 10.5T72 756t10.5 25.5T108 792t25.5-10.5T144 756zm90-288v360q0 15-10.5 25.5T198 864H36q-15 0-25.5-10.5T0 828V468q0-15 10.5-25.5T36 432h162q15 0 25.5 10.5T234 468zm666 0q0 48-31 84 9 27 9 43 0 43-24 77 10 32-1 65-8 32-30 53 4.5 64.5-27 102-38 44-112 44h-72q-83 0-217-47-64-24-89-25-14 0-25-10.5T270 828V468q0-14 10.5-24.5T305 432q24-2 99-102 43-54 57-67 22-23 34-89 15-69 38-91 9-11 25-11 36 0 61.5 11.5t37.5 26 18.5 38 7.5 36 1 32.5q0 44-31 108-13 23-17 36h156q44 0 76 32t32 76z"/></svg>
