<svg xmlns="http://www.w3.org/2000/svg" viewBox="0 0 1008 1008"><path fill="currentColor" d="M144 252q0-15-10.5-25.5T108 216t-25.5 10.5T72 252t10.5 25.5T108 288t25.5-10.5T144 252zm648 324q0-20-12-45.5T750 504q20-22 20-58 0-39-30-67 10-17 10-39 0-20-10-41t-27-30q3-15 3-31 0-94-104-94h-72q-71 0-192 41-87 31-114 31h-18v360h18q10 0 24 8t25 17.5 26.5 27 24 28 22 28T371 705q35 42 43 51 29 31 42.5 97.5T486 936q54 0 72-26.5t18-81.5q0-34-27-90.5T522 648h198q28 0 50-22t22-50zm72 0q0 58-43 101t-101 43h-99q27 56 27 108 0 67-20 105-38 75-142 75-28 0-51-21-24-24-34.5-61t-17-71-20.5-48q-19-21-60-72-58-75-77-87H72q-30 0-51-21T0 576V216q0-30 21-51t51-21h162q7 0 21.5-4t33.5-10.5 23-7.5q140-50 238-50h63q78 0 126.5 44.5T788 238v3q34 43 34 100 0 8-2 24 22 39 22 81 0 17-5 39 27 43 27 91z"/></svg>
