<svg xmlns="http://www.w3.org/2000/svg" viewBox="0 0 1008 1008"><path fill="currentColor" d="M864 577q0 58-43 100.5T720 720h-99q27 56 27 108 0 67-20 105-38 75-142 75-28 0-51-21-24-24-34.5-61t-17-71-20.5-48q-31.5-34.5-60-72-56-73-77-87H72q-30 0-51-21T0 576V216q0-30 21-51t51-21h162q13 0 78-23 142-49 238-49h63q78 0 126.5 44.5T788 238v3q34 43 34 100 0 8-2 24 22 39 22 81 0 21-6 39 28 42 28 92zm-72-1q0-20-12-45.5T750 504q20-23 20-58 0-39-30-67 10-20 10-39 0-21-10-41.5T713 269q3-15 3-31 0-94-104-94h-72q-73 0-192 41-87 31-114 31h-18v360h18q10 0 24 8t25 17.5 26.5 27 24 28 22 28T371 705q37 45 43 51 30 31 43 97.5t29 82.5q54 0 72-26.5t18-81.5q0-33-27-90t-27-90h198q28 0 50-22t22-50zM144 252q0-15-10.5-25.5T108 216t-25.5 10.5T72 252t10.5 25.5T108 288t25.5-10.5T144 252z"/></svg>
