<svg xmlns="http://www.w3.org/2000/svg" viewBox="0 0 1008 1008"><path fill="currentColor" d="M144 756q0-15-10.5-25.5T108 720t-25.5 10.5T72 756t10.5 25.5T108 792t25.5-10.5T144 756zm648-324q0-28-22-50t-50-22H522q0-33 27-89.5t27-90.5q0-55-18-81.5T486 72q-16 16-29.5 82.5T414 252q-6 6-43 51-2 3-15.5 20.5t-22 28-24 28-26.5 27-25 17.5-24 8h-18v360h18q27 0 114 31 121 41 192 41h68q108 0 108-94 0-16-3-31 17-9 27-30t10-41q0-22-10-39 30-28 30-67 0-36-20-58 18-1 30-26.5t12-45.5zm72 0q0 48-27 91 5 22 5 39 0 42-22 81 2 16 2 24 0 57-34 100 1 79-47.5 124T613 936h-73q-86 0-228-50-4-1-23-7.5T255.5 868t-21.5-4H72q-30 0-51-21T0 792V432q0-30 21-51t51-21h154q19-12 77-87 41-51 60-72 14-14 20.5-48t17-71T435 21q23-21 51-21 104 0 142 75 20 39 20 105 0 52-27 108h99q58 0 101 43t43 101z"/></svg>
