<svg xmlns="http://www.w3.org/2000/svg" viewBox="0 0 1008 1008"><path fill="currentColor" d="M792 234v36q0 8-5 13t-13 5h-54v533q0 47-26.5 81T630 936H162q-37 0-63.5-33.5T72 823V288H18q-8 0-13-5t-5-13v-36q0-8 5-13t13-5h174l39-94q9-20 31-35t44-15h180q22 0 44 15t31 35l39 94h174q8 0 13 5t5 13zm-494-84l-28 66h252l-27-66q-4-4-10-6H307q-7 2-9 6zm278 624V378q0-8-5-13t-13-5h-36q-8 0-13 5t-5 13v396q0 8 5 13t13 5h36q8 0 13-5t5-13zm-144 0V378q0-8-5-13t-13-5h-36q-8 0-13 5t-5 13v396q0 8 5 13t13 5h36q8 0 13-5t5-13zm-144 0V378q0-8-5-13t-13-5h-36q-8 0-13 5t-5 13v396q0 8 5 13t13 5h36q8 0 13-5t5-13z"/></svg>
