<svg xmlns="http://www.w3.org/2000/svg" viewBox="0 0 1008 1008"><path fill="currentColor" d="M288 774V378q0-8-5-13t-13-5h-36q-8 0-13 5t-5 13v396q0 8 5 13t13 5h36q8 0 13-5t5-13zm144 0V378q0-8-5-13t-13-5h-36q-8 0-13 5t-5 13v396q0 8 5 13t13 5h36q8 0 13-5t5-13zm144 0V378q0-8-5-13t-13-5h-36q-8 0-13 5t-5 13v396q0 8 5 13t13 5h36q8 0 13-5t5-13zM270 216h252l-27-66q-3-3-9-6H307q-6 2-10 6zm522 18v36q0 8-5 13t-13 5h-54v533q0 47-26.5 81T630 936H162q-37 0-63.5-33.5T72 823V288H18q-8 0-13-5t-5-13v-36q0-8 5-13t13-5h174l39-94q9-21 31-35.5T306 72h180q22 0 44 14.5t31 35.5l39 94h174q8 0 13 5t5 13z"/></svg>
