<svg xmlns="http://www.w3.org/2000/svg" viewBox="0 0 1008 1008"><path fill="currentColor" d="M1008 144q0 59-42.5 101.5T864 288t-101.5-42.5T720 144t42.5-101.5T864 0t101.5 42.5T1008 144zm72 343q0 44-31.5 66.5T971 576h-75q-58-69-150-72 46-64 46-144 0-19-3-37 39 13 75 13 33 0 67-12t55-24 24-12q70 0 70 199zM756 360q0 89-63.5 152.5T540 576t-152.5-63.5T324 360t63.5-152.5T540 144t152.5 63.5T756 360zM360 144q0 59-42.5 101.5T216 288t-101.5-42.5T72 144t42.5-101.5T216 0t101.5 42.5T360 144zm576 718q0 68-41 107t-109 39H294q-68 0-109-39t-41-107q0-43 4-83t17-85 33.5-77.5 57-54.5 83.5-22q5 0 24 12t41.5 27 60 27 75.5 12 75.5-12 60-27 41.5-27 24-12q47 0 83.5 22t57 54.5T915 694t17 85 4 83zM334 504q-92 3-149 72h-76q-46 0-77.5-22.5T0 487q0-199 70-199 3 0 24 12t55 24 67 12q36 0 75-13-3 18-3 37 0 80 46 144z"/></svg>
