<svg xmlns="http://www.w3.org/2000/svg" viewBox="0 0 1008 1008"><path fill="currentColor" d="M334 504q-92 3-149 72h-76q-46 0-77.5-23T0 486q0-198 70-198 3 0 24 12t55 24 67 12q40 0 75-13-3 18-3 37 0 80 46 144zm602 358q0 68-41 107t-109 39H294q-68 0-109-39t-41-107q0-43 4-83t17-85 33.5-77.5 57-54.5 83.5-22q5 0 24 12t41.5 27 60 27 75.5 12 75.5-12 60-27 41.5-27 24-12q47 0 83.5 22t57 54.5T915 694t17 85 4 83zM360 144q0 59-42.5 101.5T216 288t-101.5-42.5T72 144t42.5-101.5T216 0t101.5 42.5T360 144zm396 216q0 89-63.5 152.5T540 576t-152.5-63.5T324 360t63.5-152.5T540 144t152.5 63.5T756 360zm324 126q0 44-31.5 67T971 576h-76q-57-69-149-72 46-64 46-144 0-19-3-37 35 13 75 13 33 0 67-12t55-24 24-12q70 0 70 198zm-72-342q0 59-42.5 101.5T864 288t-101.5-42.5T720 144t42.5-101.5T864 0t101.5 42.5T1008 144z"/></svg>
