<svg xmlns="http://www.w3.org/2000/svg" viewBox="0 0 1008 1008"><path fill="currentColor" d="M432 198v612q0 15-10.5 25.5T396 846q-16 0-25-11L183 648H36q-15 0-25.5-10.5T0 612V396q0-15 10.5-25.5T36 360h147l188-187q9-11 25-11 15 0 25.5 10.5T432 198zm216 306q0 42-24 79t-63 53q-7 3-14 3-15 0-25.5-10.5T511 603q0-14 10-24t22.5-16 22.5-21 10-38-10-38-22.5-21-22.5-16-10-24q0-15 10.5-25.5T547 369q7 0 14 3 39 16 63 53t24 79zm144 0q0 86-48 158.5T617 769q-6 3-14 3-15 0-25.5-11T567 736q0-23 22-33 32-17 43-25 88-66 88-174t-88-174q-11-8-43-25-22-10-22-33 0-14 10.5-25t25.5-11q8 0 14 3 79 34 127 106.5T792 504zm144 0q0 130-71.5 238T674 901q-6 3-14 3-15 0-25.5-10.5T624 868q0-20 22-33 5-3 14-7t11-5q25-12 46-29 70-51 108.5-127.5T864 504t-38.5-162.5T717 214q-21-16-46-29-2-1-11-5t-14-7q-22-13-22-33 0-15 10.5-25.5T660 104q8 0 14 3 119 51 190.5 159T936 504z"/></svg>
