<svg xmlns="http://www.w3.org/2000/svg" viewBox="0 -144 792 1008"><path fill="currentColor" d="M572 24c0 23-5 49-16 76-11 28-29 54-53 78-20 20-40 34-60 40-13 4-32 8-59 10 1-56 16-104 44-145 28-40 75-68 141-83 1 5 2 9 2 12 0 4 1 8 1 12zm212 659c-14 45-37 92-70 141-48 74-96 110-144 110-19 0-45-6-79-18-33-12-62-18-85-18-22 0-49 6-80 19s-55 19-74 19c-58 0-114-49-169-146C28 694 0 600 0 507c0-86 21-156 64-210 42-54 95-81 159-81 28 0 61 6 100 17s65 17 78 17c16 0 43-7 80-19 37-13 70-20 97-20 45 0 85 13 120 37 20 14 39 33 59 56-30 25-51 47-65 67-24 35-36 73-36 116 0 46 13 88 39 126 26 37 55 60 89 70z"/></svg>
