<svg xmlns="http://www.w3.org/2000/svg" viewBox="0 -144 864 1008"><path fill="currentColor" d="M803 385l-81-81-200 200 200 200 81-81c10-11 26-14 39-8 13 5 22 18 22 33v252c0 20-16 36-36 36H576c-15 0-27-9-33-22s-3-29 8-39l81-81-200-200-200 200 81 81c11 10 14 26 8 39s-18 22-33 22H36c-20 0-36-16-36-36V648c0-15 9-27 22-33s29-3 39 8l81 81 200-200-200-200-81 81c-6 7-15 11-25 11-4 0-10-1-14-3-13-5-22-18-22-33V108c0-20 16-36 36-36h252c15 0 27 9 33 22s3 29-8 39l-81 81 200 200 200-200-81-81c-11-10-14-26-8-39s18-22 33-22h252c20 0 36 16 36 36v252c0 15-9 28-22 33-4 2-9 3-14 3-10 0-19-4-25-11z"/></svg>
