<svg xmlns="http://www.w3.org/2000/svg" viewBox="0 -144 1152 1008"><path fill="currentColor" d="M1092 9l48 54c6 8 5 19-2 26L85 1001c-7 7-19 6-25-2l-48-54c-6-8-5-19 2-25l105-91c-7-11-11-24-11-37 83-70 180-196 180-468 0-108 89-226 239-248-3-7-5-14-5-22 0-30 24-54 54-54s54 24 54 54c0 8-2 15-4 22 96 14 168 69 206 135L1067 7c7-7 19-6 25 2zm-48 783c0 39-33 72-72 72H720c0 79-65 144-144 144s-143-64-144-143l84-73h426c-63-70-105-156-128-258l62-55c29 168 103 258 168 313zM283 687l493-428c-28-59-93-115-200-115-147 0-216 107-216 180 0 144-25 264-77 363zm302 267c0-5-4-9-9-9-44 0-81-37-81-81 0-5-4-9-9-9s-9 4-9 9c0 55 44 99 99 99 5 0 9-4 9-9z"/></svg>
