<svg xmlns="http://www.w3.org/2000/svg" viewBox="0 -168 1008 1008"><path fill="currentColor" d="M400 608c57 57 151 57 208 0s57-151 0-208-151-57-208 0-57 151 0 208zm417-63l89 69c9 6 10 16 4 28l-85 145c-6 10-14 13-26 8l-104-41c-28 20-51 33-71 41l-16 111c-1 11-9 17-19 17H419c-9 0-18-6-19-17l-16-111c-26-9-49-23-71-41l-104 41c-12 5-20 2-26-8L98 642c-6-12-5-22 4-28l89-69c-2-17-2-65 0-82l-89-69c-9-6-10-16-4-28l85-146c6-9 14-12 26-7l104 41c28-20 51-34 71-41l16-111c1-11 10-17 19-17h170c10 0 18 6 19 17l16 111c26 9 49 23 71 41l104-41c12-5 20-2 26 7l85 146c6 12 5 22-4 28l-89 69c2 17 2 65 0 82z"/></svg>
