<svg xmlns="http://www.w3.org/2000/svg" viewBox="0 -144 936 1008"><path fill="currentColor" d="M753 310c6 13 3 29-8 39L493 601c-7 7-16 11-25 11s-18-4-25-11L191 349c-11-10-14-26-8-39 5-13 18-22 33-22h144V36c0-20 16-36 36-36h144c20 0 36 16 36 36v252h144c15 0 28 9 33 22zm183 320v180c0 30-24 54-54 54H54c-30 0-54-24-54-54V630c0-30 24-54 54-54h262l75 77c21 20 48 31 77 31s56-11 77-31l76-77h261c30 0 54 24 54 54zm-72 126c0-20-16-36-36-36s-36 16-36 36 16 36 36 36 36-16 36-36zm-144 0c0-20-16-36-36-36s-36 16-36 36 16 36 36 36 36-16 36-36z"/></svg>
