<svg xmlns="http://www.w3.org/2000/svg" viewBox="0 -168 1008 1008"><path fill="currentColor" d="M504 86c120 0 219 43 297 122 79 78 122 177 122 297s-43 219-122 297c-78 79-177 122-297 122s-219-43-297-122C128 724 85 625 85 505s43-219 122-297c78-79 177-122 297-122zm-41 752v-81c-48 0-85-37-85-85v-41L177 430c-6 24-10 49-10 75 5 175 124 309 296 333zm289-107c55-61 89-139 89-226 0-144-85-258-211-311v18c0 47-37 82-85 82h-82v85c0 24-20 41-44 41h-82v85h252c23 0 41 18 41 41v126h41c40 0 67 26 81 59z"/></svg>
