<svg xmlns="http://www.w3.org/2000/svg" viewBox="0 -144 864 1008"><path fill="currentColor" d="M494 858c77-13 146-51 198-106-3-3-10-2-14-4-5-2-8-4-14-5 1-11-11-15-19-21-7-5-12-12-22-9-1 0-13 4-10 6-8-6-11-9-21-12-9-3-15-14-24-4-4 5-2 11-4 16-8-6 6-14 1-20-7-8-19 5-24 8-4 3-8 4-10 7-3 4-4 9-6 13-2-4-11-3-12-6 2 13 2 27 5 41 2 8 0 20-7 27-6 6-15 13-16 22-1 7 1 13 7 15 0 8-9 14-9 23 0 1 1 7 1 9zm92-493c-5 3-7 10-13 11 3-1 6-11 8-13 3-4 7-7 12-9 9-4 19-4 29-6s22-3 29 6c-2-2 12-14 13-14 5-3 14-2 17-7 1-2 1-12 1-12-9 1-13-8-13-16 0 0-1 2-4 4 1-8-10-2-14-3-13-3-11-12-15-22-2-5-8-7-10-12-3-3-4-10-9-11-3 0-10 12-11 11-5-3-7 1-11 4-3 2-6 1-9 2 10-3-5-9-10-7 8-3 4-11-1-15h3c-1-5-17-10-22-13s-32-9-37-6c-7 4 1 16 1 21 1 7-6 9-6 14 0 10 18 8 13 21-3 8-13 10-18 16-4 6 0 16 5 19 4 4-8 9-9 11-10 4-17-10-20-18-1-7-2-14-9-17-3-1-14-3-16 0-3-8-15-12-23-14-11-4-21-4-33-3 4 0-1-18-10-15 3-5 1-12 3-17 1-5 3-9 6-13 1-2 14-15 10-16 9 1 20 2 28-6 5-5 7-14 12-19 8-9 17 2 25 3 11 0 10-12 4-18 7 1 1-13-3-14-5-2-24 3-14 7-2-1-16 27-23 13-3-3-4-15-9-15-4 0-7 5-9 8 3-7-16-12-20-13 9-5 2-12-4-15-5-3-19-5-23-1-10 13 12 15 17 18 2 1 9 5 5 8-4 2-14 5-15 7-3 5 4 11-1 16-5-5-5-14-9-19 5 6-20 2-20 2-8 0-22 6-28-2-1-3-1-16 2-13-5-4-8-8-11-10-19 6-36 14-53 23 2 1 4 1 7 0 4-2 8-5 13-7 5-3 17-9 23-4l3-3c4 5 8 9 11 14-4-2-12-1-17 0-4 1-10 2-12 6 2 3 4 8 3 10-8-5-13-13-23-14h-13c-54 30-99 74-132 125 2 3 5 4 7 5 6 1 0 18 11 9 3 3 3 7 1 11 1-1 23 14 25 15 4 4 10 8 12 12 1 4-2 8-6 10 0-1-9-9-10-7-2 3 0 18 6 17-9 1-5 36-7 42 0 1 1 1 1 1-2 7 4 33 15 30-7 2 13 28 16 30 7 5 16 8 21 15 5 8 5 20 13 26-2 7 12 15 12 24-2 1-2 1-3 2 3 7 13 7 17 15 3 4 0 15 7 13 2-13-7-25-13-35-3-6-7-11-10-16-2-6-3-12-5-17 2 0 14 5 13 6-4 12 18 31 25 39 1 1 14 18 7 18 8 0 18 11 21 17 5 9 4 19 8 28 3 11 19 17 28 22 7 4 14 9 22 12 12 4 15 0 25-1 14-2 16 14 28 20 7 4 23 10 31 6-3 1 12 25 13 26 5 7 15 10 20 17 2-1 4-3 4-5-2 6 8 18 14 17s8-14 8-18c-11 6-21 1-28-10-1-3-10-19-2-19 11 0 4-8 2-16-1-8-9-13-12-20-4 7-15 5-19 0 0 1-1 4-1 6-3 0-6 1-9 0 2-7 2-15 4-23 2-10 21-30-3-28-9 0-12 4-15 11-2 7-1 13-9 16-5 2-22 1-27-2-11-6-18-25-18-37-1-15 7-28 0-42 3-3 6-9 10-12 4-2 8 2 9-5-1-1-4-3-4-3 8 4 24-6 31 0 5 3 10 4 13-1 0-2-4-9-2-13 2 9 8 11 16 5 4 3 13 2 19 6 6 3 7 10 15 1 4 7 5 7 6 14 2 6 5 22 11 24 12 8 9-12 8-19-1 0-1-19-1-19-18-4-11-18-1-27 1-1 14-6 20-10 5-5 11-13 8-20 3 0 5-2 7-5-2-1-9-6-10-6 4-2 3-5 1-9 6-3 3-9 9-12 6 9 18-1 12-8 6-7 19-3 22-11 8 2 2-8 7-14 3-6 10-5 15-8 0 0 14-8 10-9 10 1 29-9 14-17 2-5-5-7-10-9 4-1 9 2 12-1 8-5 2-7-4-9-8-2-18 3-24 7zM432 72c239 0 432 194 432 432S671 936 432 936 0 742 0 504 193 72 432 72z"/></svg>
