<svg xmlns="http://www.w3.org/2000/svg" viewBox="0 -144 1296 1008"><path fill="currentColor" d="M1296 288c0 8-5 15-12 17L654 503c-3 1-4 1-6 1s-3 0-6-1L276 388c-32 25-55 87-59 163 21 12 35 35 35 61 0 25-13 47-33 60l33 244c1 5-1 10-4 14-4 4-9 6-14 6H126c-5 0-10-2-13-6-4-4-6-9-5-14l33-244c-20-13-33-35-33-60 0-27 15-50 37-62 3-66 20-137 55-186L12 305c-7-2-12-9-12-17s5-15 12-17L642 73c3-1 4-1 6-1s3 0 6 1l630 198c7 2 12 9 12 17zM675 572l323-102 10 178c5 79-161 144-360 144s-365-65-360-144l10-178 323 102c9 3 18 4 27 4s18-1 27-4z"/></svg>
