<svg xmlns="http://www.w3.org/2000/svg" viewBox="0 -144 864 1008"><path fill="currentColor" d="M504 342v252c0 10-8 18-18 18H306c-10 0-18-8-18-18v-36c0-10 8-18 18-18h126V342c0-10 8-18 18-18h36c10 0 18 8 18 18zm360 162c0 238-194 432-432 432-129 0-251-57-332-156-6-7-5-18 1-24l77-78c3-3 9-5 14-5 5 1 10 3 13 7 55 72 138 112 227 112 159 0 288-129 288-288S591 216 432 216c-74 0-143 28-196 77l77 78c11 10 14 26 8 39s-18 22-33 22H36c-20 0-36-16-36-36V144c0-15 9-27 22-33s29-3 39 8l73 72c80-75 187-119 298-119 238 0 432 194 432 432z"/></svg>
