<svg xmlns="http://www.w3.org/2000/svg" viewBox="0 -144 1008 1008"><path fill="currentColor" d="M947 684c0 13-52 65-65 65-15 0-60-53-72-65l-54 54 124 124c10 10 16 24 16 38 0 32-36 68-68 68-14 0-28-6-38-16L412 574c-59 44-131 74-205 74C84 648 0 563 0 441 0 257 185 72 369 72c122 0 207 84 207 207 0 74-30 146-74 205l200 200 54-54c-12-12-65-57-65-72 0-13 52-65 65-65 4 0 10 3 13 6 21 21 178 169 178 185zM468 288c0-60-48-108-108-108s-108 48-108 108c0 16 4 32 11 47-15-7-31-11-47-11-60 0-108 48-108 108s48 108 108 108 108-48 108-108c0-16-4-32-11-47 15 7 31 11 47 11 60 0 108-48 108-108z"/></svg>
