<svg xmlns="http://www.w3.org/2000/svg" viewBox="0 -144 936 1008"><path fill="currentColor" d="M927 684c0 43-18 84-48 114l-82 82c-31 31-72 47-115 47s-84-17-114-48L452 763c-31-31-47-72-47-114 0-45 18-87 49-118l-49-49c-31 31-73 49-117 49-43 0-84-17-115-47L56 367C25 336 9 295 9 252s18-84 48-114l82-82c31-31 72-47 115-47s84 17 114 48l116 116c31 31 47 72 47 114 0 45-18 87-49 118l49 49c31-31 73-49 117-49 43 0 84 17 115 47l117 117c31 31 47 72 47 115zM424 287c0-14-6-28-16-38L292 133c-10-10-24-16-38-16s-29 5-39 15l-82 82c-10 10-16 24-16 38 0 15 6 28 16 38l117 117c10 10 24 15 38 15 16 0 29-5 40-17-18-19-40-34-40-63 0-30 24-54 54-54 29 0 44 22 63 40 12-11 19-24 19-41zm395 397c0-15-6-28-16-38L686 529c-10-10-24-16-38-16-16 0-29 6-40 18 18 19 40 34 40 63 0 30-24 54-54 54-29 0-44-22-63-40-12 11-19 24-19 41 0 14 6 28 16 38l116 116c10 10 24 15 38 15s29-4 39-14l82-82c10-10 16-24 16-38z"/></svg>
