<svg xmlns="http://www.w3.org/2000/svg" viewBox="0 -144 1008 1008"><path fill="currentColor" d="M1008 90v108c0 10-8 18-18 18H234c-10 0-18-8-18-18V90c0-10 8-18 18-18h756c10 0 18 8 18 18zm0 216v108c0 10-8 18-18 18H234c-10 0-18-8-18-18V306c0-10 8-18 18-18h756c10 0 18 8 18 18zm0 216v108c0 10-8 18-18 18H234c-10 0-18-8-18-18V522c0-10 8-18 18-18h756c10 0 18 8 18 18zM144 90v108c0 10-8 18-18 18H18c-10 0-18-8-18-18V90c0-10 8-18 18-18h108c10 0 18 8 18 18zm864 648v108c0 10-8 18-18 18H234c-10 0-18-8-18-18V738c0-10 8-18 18-18h756c10 0 18 8 18 18zM144 306v108c0 10-8 18-18 18H18c-10 0-18-8-18-18V306c0-10 8-18 18-18h108c10 0 18 8 18 18zm0 216v108c0 10-8 18-18 18H18c-10 0-18-8-18-18V522c0-10 8-18 18-18h108c10 0 18 8 18 18zm0 216v108c0 10-8 18-18 18H18c-10 0-18-8-18-18V738c0-10 8-18 18-18h108c10 0 18 8 18 18z"/></svg>
