<svg xmlns="http://www.w3.org/2000/svg" viewBox="0 0 70 55"><title>open-book</title><path d="M67.67 3.095c-.981 0-1.902.01-2.825.033V0h-1.027c-19.967 0-26.66 4.768-28.82 7.341C32.84 4.768 26.147 0 6.18 0H5.152v3.127a102.8 102.8 0 0 0-2.822-.032H0v45.218h2.33c24.633 0 29.66 5.64 30.377 6.687h4.623c.78-1.096 5.905-6.687 30.342-6.687H70V3.095h-2.33zM33.46 46.274c-3.44-2.533-10.656-5.471-25.737-5.667V2.585c21.122.27 25.202 6.048 25.737 6.988v36.7zm28.819-5.667c-15.081.196-22.297 3.131-25.737 5.667V9.586c.583-1.03 4.777-6.729 25.737-6.999v38.02z" fill-rule="nonzero" fill="#017D87"/></svg>
