<svg xmlns="http://www.w3.org/2000/svg" viewBox="0 -144 864 1008"><path fill="currentColor" d="M864 504c0 238-193 432-432 432S0 742 0 504 193 72 432 72s432 194 432 432zM648 396c0-103-108-180-205-180-91 0-160 40-208 120-5 8-3 18 4 23l74 57c3 2 7 3 11 3 5 0 11-2 14-7 26-34 38-44 48-51s29-14 49-14c36 0 69 23 69 48 0 29-15 44-50 59-39 19-94 65-94 120v20c0 10 8 18 18 18h108c10 0 18-8 18-18 0-13 16-41 43-56 42-24 101-56 101-142zM504 774V666c0-10-8-18-18-18H378c-10 0-18 8-18 18v108c0 10 8 18 18 18h108c10 0 18-8 18-18z"/></svg>
