<svg xmlns="http://www.w3.org/2000/svg" viewBox="0 -144 936 1008"><path fill="currentColor" d="M869 528c19 22 31 54 31 84 0 59-49 108-108 108H636c5 18 10 24 17 36 14 29 31 62 31 108 0 43 0 144-126 144-10 0-19-4-25-11-24-23-31-58-37-91-7-33-13-67-35-89-18-17-37-41-57-67-25-33-79-100-100-101-18-2-34-18-34-36V252c0-20 17-35 36-36 20-1 53-13 89-25 61-21 137-47 217-47h73c49 1 86 15 110 44 22 25 31 59 28 102 14 13 25 32 30 53 6 22 7 45 0 65 17 23 25 49 25 77-1 8-3 25-9 43zm-635 84V252c0-20-16-36-36-36H36c-20 0-36 16-36 36v360c0 20 16 36 36 36h162c20 0 36-16 36-36zm-90-288c0 20-16 36-36 36s-36-16-36-36 16-36 36-36 36 16 36 36z"/></svg>
