<svg xmlns="http://www.w3.org/2000/svg" viewBox="0 -144 792 1008"><path fill="currentColor" d="M792 234v36c0 10-8 18-18 18h-54v533c0 62-41 115-90 115H162c-49 0-90-51-90-113V288H18c-10 0-18-8-18-18v-36c0-10 8-18 18-18h174l39-94c12-27 45-50 75-50h180c30 0 63 23 75 50l39 94h174c10 0 18 8 18 18zm-494-84l-28 66h252l-27-66c-2-2-7-5-10-6H307c-3 1-8 4-9 6zm278 624V378c0-10-8-18-18-18h-36c-10 0-18 8-18 18v396c0 10 8 18 18 18h36c10 0 18-8 18-18zm-144 0V378c0-10-8-18-18-18h-36c-10 0-18 8-18 18v396c0 10 8 18 18 18h36c10 0 18-8 18-18zm-144 0V378c0-10-8-18-18-18h-36c-10 0-18 8-18 18v396c0 10 8 18 18 18h36c10 0 18-8 18-18z"/></svg>
