<svg xmlns="http://www.w3.org/2000/svg" viewBox="0 -144 936 1008"><path fill="currentColor" d="M936 504c0 173-103 329-262 397-4 2-9 3-14 3-20 0-36-16-36-36 0-16 8-25 22-33 8-5 17-8 25-12 16-8 32-18 46-29 92-68 147-175 147-290s-55-222-147-290c-14-11-30-21-46-29-8-4-17-7-25-12-14-8-22-17-22-33 0-20 16-36 36-36 5 0 10 1 14 3 159 68 262 224 262 397zm-144 0c0 114-69 221-174 265-5 2-10 3-14 3-21 0-37-17-37-36 0-16 9-27 22-33 15-8 29-15 43-25 55-41 88-105 88-174s-33-133-88-174c-14-10-28-17-43-25-13-6-22-17-22-33 0-19 16-36 36-36 5 0 10 1 15 3 105 44 174 151 174 265zm-144 0c0 56-34 110-87 132-5 2-10 3-14 3-20 0-36-16-36-36 0-43 65-31 65-99s-65-56-65-99c0-20 16-36 36-36 4 0 9 1 14 3 53 21 87 76 87 132zM432 198v612c0 20-16 36-36 36-10 0-19-4-25-11L183 648H36c-20 0-36-16-36-36V396c0-20 16-36 36-36h147l188-187c6-7 15-11 25-11 20 0 36 16 36 36z"/></svg>
